<svg width="26" height="20" viewBox="0 0 26 20" fill="none" xmlns="http://www.w3.org/2000/svg">
<path d="M20.8296 0H5.17033C2.31935 0 0 2.43601 0 5.43024V14.5698C0 17.564 2.31935 20 5.17033 20H20.8296C23.6806 20 26 17.564 26 14.5698V5.43024C26 2.43601 23.6806 0 20.8296 0ZM24.9388 14.5698C24.9388 16.9512 23.0954 18.8889 20.8296 18.8889H5.17033C2.90461 18.8889 1.06122 16.9512 1.06122 14.5698V5.43024C1.06122 3.04879 2.90461 1.11111 5.17033 1.11111H20.8296C23.0954 1.11111 24.9388 3.04879 24.9388 5.43024V14.5698Z" fill="black"/>
<path d="M17.7014 9.79899L10.3498 5.29049C10.1866 5.19043 9.98294 5.18876 9.81786 5.28782C9.65284 5.38682 9.55103 5.57071 9.55103 5.76982V14.7857C9.55103 14.9848 9.65284 15.1687 9.81759 15.2677C9.89946 15.3168 9.99068 15.3413 10.0816 15.3413C10.1744 15.3413 10.2669 15.3158 10.3498 15.265L17.7014 10.7577C17.8638 10.6581 17.9639 10.4755 17.9639 10.2783C17.9639 10.0811 17.8641 9.89854 17.7014 9.79899ZM10.6122 13.8164V6.7391L16.3832 10.2783L10.6122 13.8164Z" fill="black"/>
</svg>
